<svg width="76" height="147" viewBox="0 0 76 147" fill="none" xmlns="http://www.w3.org/2000/svg">
<path d="M60.27 56.29C61.73 55.96 62.91 55.68 63.67 55.46C61.6 53.06 60.77 51.86 59.42 50.15C59.42 50.15 59.69 52.01 60.26 56.27L60.27 56.29ZM61.27 63.75V63.84C62.74 74.1 64.46 85.44 64.58 87.65L25.32 87.58C25.45 80.52 28.32 60.75 29.97 50.58C29.1 50.94 13.79 56.58 11.97 54.73V54.68C10.7 47.4 9.07001 39.46 8.14001 33.48L12.44 31.61C13.11 33.7 16.03 41.35 17.86 45.36C21.9625 41.5835 26.4428 38.2392 31.23 35.38C34.23 33.76 39.13 33.96 39.13 33.96C39.1927 33.4996 39.3678 33.0617 39.6399 32.6849C39.912 32.3082 40.2726 32.0043 40.69 31.8L40.98 31.69C44.33 30.77 50.47 31.43 51.24 31.9C51.8848 32.3989 52.3371 33.1055 52.52 33.9C52.52 33.9 60.69 35.1 63.09 37.07C63.09 37.07 70.37 47.02 74.01 54.83C75.35 57.7 74.84 59.46 72.4 60.83C71 61.77 66.2 62.89 61.29 63.75H61.27ZM47.72 59.75C47.9 59.27 46.79 57.92 45.48 57.81H45.35L45.85 53.53C45.85 53 43.85 52.53 41.44 52.53C39.03 52.53 37.04 52.97 37.04 53.53C37.0414 53.5916 37.0625 53.6512 37.1 53.7L37.64 58.45C37.6355 58.4765 37.6355 58.5035 37.64 58.53C37.4958 58.5207 37.3513 58.5428 37.2165 58.5947C37.0816 58.6467 36.9596 58.7272 36.8589 58.8308C36.7581 58.9344 36.681 59.0586 36.6329 59.1948C36.5848 59.3311 36.5667 59.4761 36.58 59.62C36.6299 59.9566 36.7594 60.2764 36.9577 60.5529C37.1559 60.8294 37.4173 61.0547 37.72 61.21C37.5873 61.1807 37.4497 61.1808 37.317 61.2104C37.1842 61.2399 37.0596 61.2982 36.9519 61.3812C36.8442 61.4641 36.7559 61.5697 36.6934 61.6904C36.6309 61.8112 36.5956 61.9442 36.59 62.08C36.6538 62.3834 36.7874 62.6679 36.98 62.9109C37.1726 63.1538 37.4191 63.3487 37.7 63.48C37.5776 63.4395 37.4474 63.4282 37.3198 63.4468C37.1921 63.4654 37.0706 63.5135 36.9648 63.5872C36.859 63.661 36.7719 63.7584 36.7103 63.8717C36.6487 63.985 36.6144 64.1111 36.61 64.24C36.61 64.72 37.29 65.32 38.51 65.74V65.98L38.81 68.67C39.6452 68.9141 40.51 69.042 41.38 69.05C42.3281 69.0305 43.2708 68.903 44.19 68.67L44.47 66.13V65.97C45.729 65.7404 46.9618 65.3853 48.15 64.91L48.32 64.77C47.43 63.88 46.79 61 47.74 59.75H47.72Z" fill="black"/>
<path d="M45.1 13.67C45.2097 13.6777 45.3119 13.7281 45.3849 13.8104C45.4578 13.8927 45.4955 14.0002 45.49 14.11C45.4798 14.2205 45.4273 14.3228 45.3434 14.3955C45.2596 14.4682 45.1509 14.5056 45.04 14.5C44.9303 14.4898 44.829 14.437 44.7579 14.3528C44.6868 14.2686 44.6517 14.1599 44.66 14.05C44.6625 13.9956 44.676 13.9423 44.6997 13.8934C44.7235 13.8444 44.757 13.8008 44.7982 13.7652C44.8394 13.7297 44.8874 13.7029 44.9393 13.6865C44.9912 13.6701 45.0459 13.6645 45.1 13.67Z" fill="black"/>
<path d="M39.61 13.52C39.7093 13.541 39.7976 13.5973 39.8586 13.6784C39.9196 13.7595 39.9491 13.8599 39.9418 13.9611C39.9345 14.0624 39.8908 14.1575 39.8188 14.229C39.7467 14.3005 39.6513 14.3434 39.55 14.35C39.4901 14.3539 39.4301 14.3449 39.374 14.3236C39.3179 14.3023 39.267 14.2693 39.2248 14.2267C39.1825 14.1841 39.1499 14.133 39.1291 14.0767C39.1082 14.0205 39.0997 13.9604 39.104 13.9006C39.1083 13.8407 39.1254 13.7825 39.1541 13.7299C39.1828 13.6772 39.2225 13.6313 39.2704 13.5952C39.3184 13.5592 39.3735 13.5338 39.4321 13.5208C39.4906 13.5078 39.5513 13.5076 39.61 13.52Z" fill="black"/>
<path d="M30 50.61C29.13 50.97 13.82 56.61 12 54.76" stroke="black" stroke-width="0.86" stroke-miterlimit="10"/>
<path d="M50.55 10.33C50.43 9.49001 50.3 8.51001 50.11 7.51001C49.8763 5.87495 49.2369 4.32444 48.25 3.00001C45.96 0.440009 43.5 1.40001 41.41 3.55001C40.8103 4.17133 40.2618 4.84018 39.77 5.55001C38.2747 7.69092 37.1241 10.0529 36.36 12.55C35.48 16.01 40.36 23.81 41.77 24.37C41.9389 24.4318 42.1129 24.4787 42.29 24.51C44.35 24.9 46.97 23.06 47.85 21.25" stroke="black" stroke-width="0.86" stroke-miterlimit="10" stroke-linecap="round"/>
<path d="M51.26 31.93C51.26 26.01 51.58 20.63 51.09 14.73" stroke="black" stroke-width="0.86" stroke-miterlimit="10"/>
<path d="M42.34 24.25C42.3352 24.3299 42.3352 24.4101 42.34 24.49C41.82 26.82 41.68 29.7 40.72 31.77" stroke="black" stroke-width="0.86" stroke-miterlimit="10"/>
<path d="M49.73 11.38C49.977 11.0145 50.2656 10.6789 50.59 10.38C52.93 8.37999 54.48 12.83 53.52 14.09C53.2169 14.4085 52.8261 14.6299 52.397 14.7261C51.968 14.8222 51.52 14.7888 51.11 14.63C50.9218 14.5786 50.7405 14.5047 50.57 14.41" stroke="black" stroke-width="0.86" stroke-miterlimit="10" stroke-linecap="round"/>
<path d="M39.79 5.52999C39.23 5.46999 31.46 3.89999 32.57 1.71999C33.21 0.479993 37.33 1.79999 41.43 3.49999C45.33 5.11999 49.23 7.07999 50.13 7.49999L50.27 7.55999" stroke="black" stroke-width="0.86" stroke-miterlimit="10"/>
<path d="M44.31 11.82C44.7185 11.6943 45.1511 11.6677 45.572 11.7424C45.9928 11.8172 46.3898 11.9912 46.73 12.25" stroke="black" stroke-width="0.86" stroke-miterlimit="10" stroke-linecap="round"/>
<path d="M51 12.19C51.4298 12.5754 51.9829 12.7952 52.56 12.81" stroke="black" stroke-width="0.86" stroke-miterlimit="10" stroke-linecap="round"/>
<path d="M38.88 12C39.54 11.7 41.03 11.78 41.3 12.43C41.73 13.48 41.09 15.66 40.82 16.91C40.63 17.76 40.33 19.41 41.82 18.97" stroke="black" stroke-width="0.86" stroke-miterlimit="10" stroke-linecap="round"/>
<path d="M43.87 21.07C43.6922 21.2619 43.4736 21.4114 43.2304 21.5077C42.9872 21.6039 42.7254 21.6444 42.4645 21.6262C42.2036 21.608 41.95 21.5315 41.7225 21.4023C41.495 21.2732 41.2994 21.0947 41.15 20.88" stroke="black" stroke-width="0.86" stroke-miterlimit="10" stroke-linecap="round"/>
<path d="M47.73 133.14C47.64 143.8 47.51 153 47.47 157.37C47.47 158.91 47.47 159.85 47.47 160.04" stroke="black" stroke-width="0.86" stroke-miterlimit="10"/>
<path d="M57.68 90.77C57.56 95.05 60.49 97.63 64.15 98.68C65.1997 98.9785 66.28 99.1563 67.37 99.21" stroke="black" stroke-width="0.86" stroke-miterlimit="10" stroke-linecap="round"/>
<path d="M63.86 164.86C63.86 164.16 63.86 161.45 63.86 157.36C63.97 144.91 64.22 119.58 64.11 98.68C64.11 94.96 64.06 91.38 64.01 88.04" stroke="black" stroke-width="0.86" stroke-linecap="round" stroke-linejoin="round"/>
<path d="M42.16 95.82C42.7096 108.42 44.5934 120.927 47.78 133.13C49.89 141.63 52.34 149.76 54.7 157.26V157.36C54.08 157.49 50.87 159.15 47.44 160.14C46.4209 160.452 45.3772 160.676 44.32 160.81C42.23 161.05 40.24 162.22 40.73 164.9" stroke="black" stroke-width="0.86" stroke-linecap="round" stroke-linejoin="round"/>
<path d="M26.11 87.7C26.73 115.29 32.77 139 38.55 157.36C37.74 157.53 32.55 160.3 28.17 160.81C26.08 161.05 24.1 162.22 24.57 164.88H41" stroke="black" stroke-width="0.86" stroke-linecap="round" stroke-linejoin="round"/>
<path d="M61.31 63.84C62.78 74.1 64.5 85.44 64.62 87.65L25.36 87.58C25.49 80.52 28.36 60.75 30.01 50.58C30.01 50.29 30.1 50.02 30.14 49.75" stroke="black" stroke-width="0.86" stroke-linecap="round" stroke-linejoin="round"/>
<path d="M12.49 31.45C14.19 28.98 12.76 24.82 12.28 23.17C12 22.17 10.55 22.25 10.7 23.67C10.82 24.89 10.99 26.18 10.49 26.67" stroke="black" stroke-width="0.86" stroke-miterlimit="10" stroke-linecap="round"/>
<path d="M10.42 26.83C10.4245 26.8035 10.4245 26.7765 10.42 26.75C9.45001 24 6.30001 19 4.67001 20C4.52407 20.077 4.4129 20.2067 4.35904 20.3627C4.30519 20.5187 4.31268 20.6893 4.38001 20.84C4.56658 21.2503 4.83547 21.6179 5.17001 21.92C6.22338 22.8474 7.04527 24.0083 7.57001 25.31" stroke="black" stroke-width="0.86" stroke-miterlimit="10" stroke-linecap="round"/>
<path d="M4.33 20.87C4.15201 20.6365 3.92182 20.448 3.65787 20.3195C3.39391 20.191 3.10354 20.1261 2.81 20.13C2.61254 20.119 2.41778 20.1798 2.26159 20.301C2.10539 20.4223 1.99828 20.596 1.96 20.79C1.8 21.29 2.15 21.69 2.5 22.02C3.78271 23.3169 4.89499 24.772 5.81 26.35" stroke="black" stroke-width="0.86" stroke-miterlimit="10" stroke-linecap="round"/>
<path d="M8 33.52C6.6 33.36 5.50999 30.11 5.13999 29.04C4.51426 27.4802 3.60567 26.0496 2.45999 24.82C2.03999 24.33 1.17999 23.52 1.22999 22.82C1.26308 22.6867 1.32326 22.5617 1.40678 22.4527C1.49031 22.3437 1.59539 22.253 1.71548 22.1864C1.83557 22.1198 1.96808 22.0787 2.10478 22.0655C2.24147 22.0524 2.37941 22.0675 2.51 22.11" stroke="black" stroke-width="0.86" stroke-miterlimit="10" stroke-linecap="round"/>
<path d="M8.45999 28.66C8.05999 27.34 9.66999 26.79 10.46 26.82" stroke="black" stroke-width="0.86" stroke-miterlimit="10" stroke-linecap="round"/>
<path d="M17.55 45.72L17.86 45.44C21.9587 41.6356 26.4391 38.2644 31.23 35.38C34.23 33.76 39.13 33.96 39.13 33.96C39.1927 33.4996 39.3678 33.0617 39.6399 32.6849C39.9119 32.3082 40.2726 32.0043 40.69 31.8L40.98 31.69C44.33 30.77 50.47 31.43 51.24 31.9C51.8848 32.3989 52.3371 33.1055 52.52 33.9C52.52 33.9 60.69 35.1 63.09 37.07C63.09 37.07 70.37 47.02 74.01 54.83C75.35 57.7 74.84 59.46 72.4 60.83C70.93 61.67 66.18 62.83 61.27 63.65C55.48 64.65 49.48 65.35 48.48 64.82C48.3909 64.7733 48.3098 64.7125 48.24 64.64C47.41 63.78 46.77 60.91 47.72 59.64C47.9111 59.3898 48.1775 59.2075 48.48 59.12C52.67 57.91 57.1 56.91 60.25 56.18C61.71 55.85 62.89 55.57 63.65 55.35C61.58 52.95 60.75 51.75 59.4 50.04C59.4 50.04 59.67 51.9 60.24 56.16" stroke="black" stroke-width="0.86" stroke-linecap="round" stroke-linejoin="round"/>
<path d="M45.24 58.84C44.64 60.39 41.65 60.12 40.34 59.91C39.88 59.84 38 59.3 37.67 58.46C37.6655 58.4335 37.6655 58.4065 37.67 58.38" stroke="black" stroke-width="0.86" stroke-miterlimit="10"/>
<path d="M37.68 58.47C37.5358 58.4607 37.3913 58.4828 37.2564 58.5347C37.1216 58.5866 36.9996 58.6672 36.8988 58.7708C36.7981 58.8743 36.721 58.9985 36.6729 59.1348C36.6247 59.271 36.6067 59.4161 36.62 59.56C36.6699 59.8966 36.7994 60.2164 36.9977 60.4929C37.1959 60.7694 37.4573 60.9947 37.76 61.15C39.1938 61.9839 40.8772 62.2816 42.51 61.99" stroke="black" stroke-width="0.86" stroke-miterlimit="10" stroke-linecap="round"/>
<path d="M37.74 61.16C37.6072 61.1306 37.4696 61.1308 37.3369 61.1603C37.2042 61.1899 37.0796 61.2482 36.9719 61.3312C36.8641 61.4141 36.7759 61.5197 36.7134 61.6404C36.6508 61.7612 36.6156 61.8941 36.61 62.03C36.6738 62.3334 36.8073 62.6179 37 62.8608C37.1926 63.1038 37.4391 63.2987 37.72 63.43C39.1575 64.1697 40.7932 64.4324 42.39 64.18" stroke="black" stroke-width="0.86" stroke-miterlimit="10" stroke-linecap="round"/>
<path d="M37.7 63.45C37.5775 63.4095 37.4473 63.3982 37.3197 63.4168C37.1921 63.4354 37.0706 63.4835 36.9648 63.5572C36.859 63.631 36.7719 63.7284 36.7103 63.8417C36.6487 63.955 36.6143 64.0811 36.61 64.21C36.61 64.69 37.29 65.29 38.51 65.71C40.4268 66.2769 42.4549 66.3559 44.41 65.94C45.669 65.7104 46.9018 65.3553 48.09 64.88" stroke="black" stroke-width="0.86" stroke-miterlimit="10" stroke-linecap="round"/>
<path d="M47.72 59.73C47.9 59.25 46.79 57.9 45.48 57.79" stroke="black" stroke-width="0.86" stroke-miterlimit="10" stroke-linecap="round"/>
<path d="M37.08 53.47L37.1 53.64L37.64 58.39L37.65 58.45" stroke="black" stroke-width="0.86" stroke-linecap="round" stroke-linejoin="round"/>
<path d="M45.86 53.47L45.85 53.5L45.35 57.78L45.23 58.85" stroke="black" stroke-width="0.86" stroke-linecap="round" stroke-linejoin="round"/>
<path d="M37.1 53.64C37.0625 53.5911 37.0414 53.5316 37.04 53.47C37.04 52.94 39.04 52.47 41.44 52.47C43.84 52.47 45.85 52.91 45.85 53.47C45.79 53.99 43.85 54.41 41.45 54.41C39.26 54.44 37.45 54.09 37.1 53.64Z" stroke="black" stroke-width="0.86" stroke-linecap="round" stroke-linejoin="round"/>
<path d="M44.44 66.1L44.16 68.64C43.2408 68.873 42.2981 69.0005 41.35 69.02C40.48 69.012 39.6151 68.8841 38.78 68.64L38.48 65.95" stroke="black" stroke-width="0.86" stroke-linecap="round" stroke-linejoin="round"/>
<path d="M11.92 54.71C10.65 47.43 9.02 39.49 8.09 33.51L12.39 31.64C13.06 33.73 15.98 41.38 17.81 45.39" stroke="black" stroke-width="0.86" stroke-linecap="round" stroke-linejoin="round"/>
<path d="M42.61 51.17C42.8641 50.9062 43.0596 50.5916 43.1837 50.2469C43.3078 49.9023 43.3577 49.5353 43.33 49.17C43.0871 48.6015 42.7995 48.0531 42.47 47.53C41.84 46.09 42.47 45.04 43.47 44.05" stroke="white" stroke-width="0.86" stroke-miterlimit="10" stroke-linecap="round"/>
<path d="M40.08 51.17C40.3341 50.9062 40.5296 50.5916 40.6537 50.2469C40.7778 49.9023 40.8276 49.5353 40.8 49.17C40.5531 48.6034 40.2657 48.0553 39.94 47.53C39.3 46.09 39.94 45.04 40.94 44.05" stroke="white" stroke-width="0.86" stroke-miterlimit="10" stroke-linecap="round"/>
<path d="M47.14 59.41C50.88 57.41 57.14 56.3 60.36 55.53" stroke="white" stroke-width="0.86" stroke-linecap="square" stroke-linejoin="round"/>
<path d="M62 64.36L61.22 64.5C55.32 65.5 48.78 65.5 47.22 64.73" stroke="white" stroke-width="0.86" stroke-linecap="round" stroke-linejoin="round"/>
</svg>
